{"title":"Ramona.and.Beezus.2010.720p.BRRip.H264.Feel-Free","uid":5924210,"size":1399972996,"categoryP":"video","categoryS":"hd___movies","magnet":"?xt=urn:btih:6a9effa52f077db76b3d6902b443c810df097f11&amp;dn=Ramona.and.Beezus.2010.720p.BRRip.H264.Feel-Free&amp;tr=udp%3A%2F%2Ftracker.openbittorrent.com%3A80&amp;tr=udp%3A%2F%2Fopen.demonii.com%3A1337&amp;tr=udp%3A%2F%2Ftracker.coppersurfer.tk%3A6969&amp;tr=udp%3A%2F%2Fexodus.desync.com%3A6969","seeders":0,"leechers":1,"uploader":"hiest","files":-1,"time":1288543281,"description":"Genre:Adventure | Comedy | Family | Fantasy\nLanguage:English\nIMDb:http://www.imdb.com/title/tt0493949/\nSource:.1080p Bluray AVC DTSHD MA 5.1 \nSubtitles:Romana\n\nGeneral\nComplete name :Ramona.and.Beezus.2010.720p.BRRip.H264.Feel-Free\nFormat : MPEG-4\nFormat profile : Base Media\nCodec ID : isom\nFile size : 1.30 GiB\nDuration : 1h 43mn\nOverall bit rate : 1 801 Kbps\nVideo #1\nCodec ID : avc1\nCodec ID/Info : Advanced Video Coding\nDuration : 1h 43mn\nBit rate mode : Variable\nBit rate : 1 476 Kbps\nWidth : 1 280 pixels\nHeight : 534 pixels\nDisplay aspect ratio : 2.35:1\nFrame rate mode : Constant\nFrame rate : 23.976 fps\nResolution : 24 bits\nColorimetry : 4:2:0\nScan type : Progressive\nBits/(Pixel*Frame) : 0.090\nStream size : 1.07 GiB (82%)\nAudio #2\nID : 2\nFormat : AAC\nFormat/Info : Advanced Audio Codec\nFormat version : Version 4\nFormat profile : LC\nFormat settings, SBR : No\nCodec ID : 40\nDuration : 1h 43mn\nBit rate mode : Variable\nBit rate : 320 Kbps\nChannel(s) : 6 channels\nChannel positions : Front: L C R, Rear: L R, LFE\nSampling rate : 48.0 KHz\nResolution : 16 bits\nStream size : 237 MiB (18%)\n\nPlot:\nFollows the misadventures of young grade schooler Ramona Quimby from Beverly Cleary's popular children's book series.\n\n\n\n\n\n\n\n================================== &lt;a href=&quot;\nhttp://thepiratebay.se/user/hiest&quot; rel=&quot;nofollow&quot; target=&quot;_NEW&quot;&gt;\nhttp://thepiratebay.se/user/hiest&lt;/a&gt;\n==================================\n\n\n\n\n\n\n\n\nScreenshots:\n &lt;a href=&quot;\nhttp://img227.imageshack.us/img227/7389/ramonaandbeezus2010720p.jpg&quot; rel=&quot;nofollow&quot; target=&quot;_NEW&quot;&gt;\nhttp://img227.imageshack.us/img227/7389/ramonaandbeezus2010720p.jpg&lt;/a&gt;\n &lt;a href=&quot;\nhttp://img835.imageshack.us/img835/7389/ramonaandbeezus2010720p.jpg&quot; rel=&quot;nofollow&quot; target=&quot;_NEW&quot;&gt;\nhttp://img835.imageshack.us/img835/7389/ramonaandbeezus2010720p.jpg&lt;/a&gt;\n &lt;a href=&quot;\nhttp://img808.imageshack.us/img808/7389/ramonaandbeezus2010720p.jpg&quot; rel=&quot;nofollow&quot; target=&quot;_NEW&quot;&gt;\nhttp://img808.imageshack.us/img808/7389/ramonaandbeezus2010720p.jpg&lt;/a&gt;\n &lt;a href=&quot;\nhttp://img168.imageshack.us/img168/7389/ramonaandbeezus2010720p.jpg&quot; rel=&quot;nofollow&quot; target=&quot;_NEW&quot;&gt;\nhttp://img168.imageshack.us/img168/7389/ramonaandbeezus2010720p.jpg&lt;/a&gt;\n &lt;a href=&quot;\nhttp://img215.imageshack.us/img215/7389/ramonaandbeezus2010720p.jpg&quot; rel=&quot;nofollow&quot; target=&quot;_NEW&quot;&gt;\nhttp://img215.imageshack.us/img215/7389/ramonaandbeezus2010720p.jpg&lt;/a&gt;\n\n\n\n","torrent":{"xt":"urn:btih:6a9effa52f077db76b3d6902b443c810df097f11","amp;dn":"Ramona.and.Beezus.2010.720p.BRRip.H264.Feel-Free","amp;tr":["udp%3A%2F%2Ftracker.openbittorrent.com%3A80","udp%3A%2F%2Fopen.demonii.com%3A1337","udp%3A%2F%2Ftracker.coppersurfer.tk%3A6969","udp%3A%2F%2Fexodus.desync.com%3A6969"],"infoHash":"6a9effa52f077db76b3d6902b443c810df097f11","infoHashBuffer":{"type":"Buffer","data":[106,158,255,165,47,7,125,183,107,61,105,2,180,67,200,16,223,9,127,17]},"announce":[],"urlList":[]}}